<svg fill="#43c988" xmlns="http://www.w3.org/2000/svg" version="1.1" x="0px" y="0px" viewBox="5 5 90 90">
<path d="M70.18,43.98H29.82c-3.3,0-6,2.71-6,6v23.94c0,3.3,2.7,6,6,6h40.36c3.301,0,6-2.7,6-6V49.98   C76.18,46.69,73.48,43.98,70.18,43.98z M36.44,66.99c-2.78,0-5.04-2.25-5.04-5.04c0-2.78,2.26-5.03,5.04-5.03   c2.78,0,5.04,2.25,5.04,5.03C41.48,64.74,39.22,66.99,36.44,66.99z M63.56,66.99c-2.779,0-5.029-2.25-5.029-5.04   c0-2.78,2.25-5.03,5.029-5.03c2.78,0,5.04,2.25,5.04,5.03C68.6,64.74,66.34,66.99,63.56,66.99z"/>
<path d="M55.49,22.733c0,2.06-1.13,3.85-2.811,4.79v13.63H47.32v-13.63c-1.681-0.94-2.811-2.73-2.811-4.79  c0-3.03,2.46-5.49,5.49-5.49S55.49,19.703,55.49,22.733z"/>
<path d="M20.82,51.145v21.62h-5.54c-3.3,0-6-2.699-6-6v-9.62c0-3.299,2.7-6,6-6H20.82z"/>
<path d="M90.72,57.145v9.62c0,3.301-2.7,6-6,6h-5.54v-21.62h5.54C88.02,51.145,90.72,53.846,90.72,57.145z"/>
</svg>
